# xmcd CD database file
#
# Track frame offsets:
#	183
#	21600
#	34990
#	54413
#	75123
#	88930
#	110613
#	131620
#	147633
#	169708
#	191343
#	211613
#	234530
#	252385
#	273233
#	290103
#
# Disc length: 4088 seconds
#
# Revision: 0
# Processed by: cddbd v1.4PL0 Copyright (c) Steve Scherf et al.
# Submitted via: CDex 1.50beta10
#
DISCID=e90ff610
DTITLE=Muddy Waters - Live Recordings
DYEAR=1991
DGENRE=Blues
TTITLE0=I Got My Brand On You
TTITLE1=I'm Your Hoochie Coochie Man
TTITLE2=Soon Forgotten
TTITLE3=Tiger In Your Tank
TTITLE4=I Feel So Good
TTITLE5=Goodbye Newport Blus
TTITLE6=Blow Wind Blow
TTITLE7=You Don't Have To Go
TTITLE8=Country Boy
TTITLE9=Nine Below Zero
TTITLE10=What Is That She Got
TTITLE11=Strange Woman
TTITLE12=Boom Boom
TTITLE13=Stormy Monday Blues
TTITLE14=C.C. Woman
TTITLE15=Mudcat
EXTD=YEAR: 1991
EXTT0=
EXTT1=
EXTT2=
EXTT3=
EXTT4=
EXTT5=
EXTT6=
EXTT7=
EXTT8=
EXTT9=
EXTT10=
EXTT11=
EXTT12=
EXTT13=
EXTT14=
EXTT15=
PLAYORDER=
